<?xml version="1.0" encoding="UTF-8" standalone="no"?>
<svg
   xmlns:dc="http://purl.org/dc/elements/1.1/"
   xmlns:cc="http://creativecommons.org/ns#"
   xmlns:rdf="http://www.w3.org/1999/02/22-rdf-syntax-ns#"
   xmlns:svg="http://www.w3.org/2000/svg"
   xmlns="http://www.w3.org/2000/svg"
   xmlns:sodipodi="http://sodipodi.sourceforge.net/DTD/sodipodi-0.dtd"
   xmlns:inkscape="http://www.inkscape.org/namespaces/inkscape"
   version="1.1"
   x="0px"
   y="0px"
   width="100px"
   height="100px"
   viewBox="0 0 100 100"
   enable-background="new 0 0 100 100"
   xml:space="preserve"
   id="svg3582"
   inkscape:version="0.91 r13725"
   sodipodi:docname="poisson icone.svg"><metadata
   id="metadata3702"><rdf:RDF><cc:Work
       rdf:about=""><dc:format>image/svg+xml</dc:format><dc:type
         rdf:resource="http://purl.org/dc/dcmitype/StillImage" /><dc:title></dc:title></cc:Work></rdf:RDF></metadata><defs
   id="defs3700" /><sodipodi:namedview
   pagecolor="#ffffff"
   bordercolor="#666666"
   borderopacity="1"
   objecttolerance="10"
   gridtolerance="10"
   guidetolerance="10"
   inkscape:pageopacity="0"
   inkscape:pageshadow="2"
   inkscape:window-width="1366"
   inkscape:window-height="705"
   id="namedview3698"
   showgrid="false"
   inkscape:zoom="2.36"
   inkscape:cx="50"
   inkscape:cy="50"
   inkscape:window-x="-8"
   inkscape:window-y="-8"
   inkscape:window-maximized="1"
   inkscape:current-layer="Your_Icon" />

<g
   id="Your_Icon"
   transform="translate(-1.6964407e-6,1.2711863)">
	<path
   d="m 26.975,30.522 c -0.118,-1.003 -0.873,-2.068 -1.957,-2.473 -1.07,-0.428 -2.381,-0.289 -3.334,0.352 -0.96,0.627 -1.604,1.654 -1.833,2.679 -0.244,1.04 -0.046,2.149 0.499,3.001 0.547,0.851 1.441,1.444 2.363,1.625 0.938,0.191 1.896,-0.132 2.528,-0.679 0.642,-0.542 1.067,-1.205 1.355,-1.907 L 26.6,33.112 c 0.273,-0.715 0.517,-1.569 0.375,-2.59 z"
   id="path3694"
   inkscape:connector-curvature="0"
   style="fill:#ffb380" />
	<path
   d="M 95.812,43.126 C 95.196,43.457 84.111,43.806 79.043,56.478 76.577,52.54 73.239,46.908 71.941,43.312 69.781,37.321 64.846,24.199 46.447,18.508 34.236,14.702 25.994,16.356 21.554,18.892 l 0.004,-0.003 c 0,0 -8.331,-5.481 -13.11,-0.083 C 2.16,26.487 8.9,32.534 8.9,32.534 c 0,0 0,0 10e-4,-10e-4 C 7.936,34.711 7.106,37.226 6.526,40.125 4.32,51.159 2.348,53.238 1.929,53.79 c -0.852,1.113 -3.851,3.902 1.067,4.838 0.725,0.139 1.354,0.245 1.934,0.337 l 0.012,-0.154 c 2.693,-0.691 5.317,-0.977 7.936,-1.214 2.608,-0.263 5.23,0.022 7.847,-0.103 2.613,-0.109 5.221,-0.349 7.77,-0.861 2.058,-0.39 4.102,-0.966 5.956,-1.95 -1.615,-1.148 -4.037,-1.671 -6.423,-1.631 l -0.073,-0.307 c 1.181,-0.508 2.444,-0.764 3.77,-0.879 1.32,-0.077 2.732,0.082 4.084,0.694 0.668,0.307 1.354,0.676 1.961,1.178 0.604,0.504 1.058,1.177 1.302,1.899 0.466,1.458 0.363,2.968 -0.441,4.248 l -0.313,0.016 c -0.927,-1.17 -1.476,-2.134 -2.08,-2.901 -0.504,-0.605 -0.784,-1.331 -1.35,-1.931 -1.764,1.396 -3.88,2.327 -5.986,3.081 -2.586,0.849 -5.25,1.415 -7.921,1.847 -2.67,0.406 -5.361,0.942 -8.064,0.744 -1.159,-0.079 -2.316,-0.212 -3.47,-0.402 0.29,2.063 1.571,6.896 7.258,10.913 7.447,5.259 17.704,10.269 29.607,6.2 10.544,-3.605 19.527,-10.899 31.045,-15.041 -0.708,4.9 -0.292,13.85 10.048,19.918 0,0 5.105,1.677 2.757,-5.053 -2.348,-6.73 -0.921,-11.911 -0.049,-14.796 0.871,-2.885 2.7,-9.862 7.954,-14.57 5.251,-4.71 -1.6,-5.137 -2.255,-4.784 z M 10.802,28.756 C 10.256,28.464 10.078,28.47 9.731,27.93 9.185,27.076 8.919,26.258 9.163,25.218 c 0.229,-1.024 0.875,-2.052 1.833,-2.679 0.954,-0.641 1.683,-0.764 2.754,-0.336 0.67,0.249 1.096,0.597 1.441,1.18 -1.519,1.391 -2.811,2.768 -4.389,5.373 z M 36.35,36.224 C 34.82,41.291 29.474,44.159 24.407,42.63 19.34,41.101 16.47,35.752 18,30.686 c 1.53,-5.067 6.879,-7.936 11.945,-6.406 5.067,1.529 7.933,6.878 6.405,11.944 z m 27.062,13.157 c -0.145,0.896 -0.394,1.356 -0.648,1.905 l -0.381,0.688 c -0.161,0.276 -0.305,0.487 -0.471,0.726 -1.325,1.849 -3.197,3.154 -5.09,4.118 -1.935,0.952 -3.904,1.557 -6.064,1.809 l -2.514,0.293 1.645,-1.84 c 2.54,-2.834 3.992,-6.775 4.034,-10.796 l 0.004,-0.254 0.259,0.122 c 1.856,0.869 3.534,0.761 5.456,0.567 0.496,-0.033 0.996,-0.112 1.717,-0.021 0.359,0.072 0.916,0.13 1.525,0.765 0.287,0.32 0.456,0.732 0.517,1.085 0.047,0.318 0.041,0.623 0.011,0.833 z"
   id="path3696"
   inkscape:connector-curvature="0"
   style="fill:#241c1c" />
<path
   style="fill:#ffb380"
   d="m 49.825716,58.792373 c 2.790315,-3.84545 4.072589,-6.901059 4.072589,-9.704826 0,-1.552012 0.03846,-1.594322 1.086907,-1.195703 0.597798,0.227282 2.48123,0.413241 4.185405,0.413241 3.604193,0 4.293419,0.474911 3.880848,2.674099 -0.355707,1.89608 -1.923624,3.934416 -4.357448,5.664801 -2.042936,1.452475 -6.55929,3.101778 -8.493723,3.101778 -1.028357,0 -1.041711,-0.03399 -0.374578,-0.95339 z"
   id="path3755"
   inkscape:connector-curvature="0"
   transform="translate(1.6964407e-6,-1.2711863)" /></g>
</svg>