<?xml version="1.0" encoding="UTF-8" standalone="no"?>
<svg
   xmlns:dc="http://purl.org/dc/elements/1.1/"
   xmlns:cc="http://creativecommons.org/ns#"
   xmlns:rdf="http://www.w3.org/1999/02/22-rdf-syntax-ns#"
   xmlns:svg="http://www.w3.org/2000/svg"
   xmlns="http://www.w3.org/2000/svg"
   xmlns:sodipodi="http://sodipodi.sourceforge.net/DTD/sodipodi-0.dtd"
   xmlns:inkscape="http://www.inkscape.org/namespaces/inkscape"
   version="1.1"
   id="Layer_1"
   x="0px"
   y="0px"
   width="100px"
   height="100px"
   viewBox="5.0 -10.0 100.0 135.0"
   enable-background="new 0 0 100 100"
   xml:space="preserve"
   inkscape:version="0.91 r13725"
   sodipodi:docname="inscription.svg"><metadata
   id="metadata3784"><rdf:RDF><cc:Work
       rdf:about=""><dc:format>image/svg+xml</dc:format><dc:type
         rdf:resource="http://purl.org/dc/dcmitype/StillImage" /><dc:title></dc:title></cc:Work></rdf:RDF></metadata><defs
   id="defs3782" /><sodipodi:namedview
   pagecolor="#ffffff"
   bordercolor="#666666"
   borderopacity="1"
   objecttolerance="10"
   gridtolerance="10"
   guidetolerance="10"
   inkscape:pageopacity="0"
   inkscape:pageshadow="2"
   inkscape:window-width="1366"
   inkscape:window-height="705"
   id="namedview3780"
   showgrid="false"
   inkscape:zoom="5.47"
   inkscape:cx="14.261964"
   inkscape:cy="68.669063"
   inkscape:window-x="-8"
   inkscape:window-y="-8"
   inkscape:window-maximized="1"
   inkscape:current-layer="Layer_1" />
<rect
   fill="none"
   width="100"
   height="100"
   id="rect3772" />
<path
   d="M17.263,32.798c0-0.838,0.681-1.514,1.517-1.514h43.449c0.836,0,1.517,0.676,1.517,1.514s-0.681,1.514-1.517,1.514H18.78  C17.944,34.312,17.263,33.636,17.263,32.798z M18.78,42.913h43.449c0.836,0,1.517-0.681,1.517-1.514  c0-0.843-0.681-1.519-1.517-1.519H18.78c-0.835,0-1.517,0.676-1.517,1.519C17.263,42.231,17.944,42.913,18.78,42.913z M18.78,51.514  h43.449c0.836,0,1.517-0.681,1.517-1.519s-0.681-1.514-1.517-1.514H18.78c-0.835,0-1.517,0.676-1.517,1.514  S17.944,51.514,18.78,51.514z M37.011,57.093H18.78c-0.835,0-1.517,0.67-1.517,1.514c0,0.832,0.681,1.514,1.517,1.514h18.231  c0.838,0,1.514-0.682,1.514-1.514C38.525,57.763,37.849,57.093,37.011,57.093z M56.244,74.295h-7.253  c-0.838,0-1.516,0.675-1.516,1.514c0,0.838,0.678,1.519,1.516,1.519h7.253c0.835,0,1.517-0.681,1.517-1.519  C57.761,74.97,57.079,74.295,56.244,74.295z M18.78,25.706h43.449c0.836,0,1.517-0.676,1.517-1.514c0-0.833-0.681-1.514-1.517-1.514  H18.78c-0.835,0-1.517,0.681-1.517,1.514C17.263,25.03,17.944,25.706,18.78,25.706z M76.006,60.325v29.917  c0,1.67-1.354,3.027-3.03,3.027H8.03C6.356,93.27,5,91.912,5,90.242V9.758C5,8.087,6.356,6.73,8.03,6.73h64.946  c1.676,0,3.03,1.357,3.03,3.027v41.999l12.426-12.423c0.786-0.789,1.884-1,2.89-0.746l0.156-0.162c0.592-0.589,1.552-0.589,2.146,0  c0.592,0.589,0.592,1.552,0,2.146l-0.162,0.157c0.257,1.006,0.043,2.103-0.743,2.893L76.006,60.325z M69.948,66.391l-4.122,4.114  c-0.592,0.595-1.365,0.892-2.141,0.892c-0.257,0-0.497-0.086-0.749-0.146l-2.289,2.292c-0.297,0.298-0.684,0.443-1.07,0.443  c-0.392,0-0.775-0.146-1.07-0.443c-0.595-0.595-0.595-1.552,0-2.141l2.289-2.292c-0.257-1-0.04-2.104,0.743-2.887l8.409-8.406  V12.791H11.063v74.418h58.886V66.391z M94.557,45.951c-0.592-0.595-1.549-0.595-2.141,0L79.738,58.628  c-0.594,0.595-0.594,1.552,0,2.141c0.295,0.298,0.679,0.449,1.068,0.449c0.387,0,0.775-0.151,1.073-0.449l12.677-12.677  C95.148,47.497,95.148,46.54,94.557,45.951z"
   id="path3774" />
<path
   style="fill:#ffcc66"
   d="m 22.446868,26.019848 c -0.385253,-0.385252 -0.363255,-1.049817 0.04704,-1.42113 0.305878,-0.276816 1.734414,-0.302557 16.790679,-0.302557 15.710476,0 16.47007,0.01515 16.758913,0.334322 0.381302,0.421333 0.387848,1.016793 0.01528,1.389365 -0.256932,0.256926 -2.03274,0.287282 -16.805961,0.287282 -14.773222,0 -16.549029,-0.03036 -16.805955,-0.287282 z"
   id="path3802"
   inkscape:connector-curvature="0"
   transform="matrix(1.35,0,0,1.35,-12.5,-10)" /><path
   style="fill:#ffcc66"
   d="m 22.462144,32.371345 c -0.396927,-0.4386 -0.384,-0.997828 0.03177,-1.374089 0.305883,-0.276821 1.735475,-0.302558 16.805954,-0.302558 17.968448,0 17.046196,-0.0544 17.046196,1.005485 0,1.059962 0.92529,1.005484 -17.07796,1.005484 -15.756049,0 -16.517099,-0.01514 -16.805955,-0.334322 z"
   id="path3804"
   inkscape:connector-curvature="0"
   transform="matrix(1.35,0,0,1.35,-12.5,-10)" /><path
   style="fill:#ffcc66"
   d="m 22.462144,38.769883 c -0.381301,-0.421334 -0.387848,-1.016793 -0.01528,-1.389366 0.256926,-0.256926 2.032733,-0.287281 16.805955,-0.287281 14.773221,0 16.549029,0.03036 16.805954,0.287281 0.385254,0.385253 0.363256,1.049818 -0.04704,1.421131 -0.305878,0.276815 -1.734415,0.302557 -16.790679,0.302557 -15.710477,0 -16.47007,-0.01515 -16.758914,-0.334322 z"
   id="path3806"
   inkscape:connector-curvature="0"
   transform="matrix(1.35,0,0,1.35,-12.5,-10)" /><path
   style="fill:#ffcc66"
   d="m 22.565895,45.218153 c -0.46408,-0.325055 -0.526217,-0.944044 -0.146855,-1.462919 0.25305,-0.34611 0.662523,-0.355969 16.590494,-0.399466 12.888956,-0.0352 16.427369,0.0042 16.788079,0.186985 0.640089,0.324333 0.726153,1.266339 0.152411,1.668204 -0.373868,0.261867 -2.08591,0.291785 -16.697201,0.291785 -14.439351,0 -16.326571,-0.03219 -16.686928,-0.284589 z"
   id="path3808"
   inkscape:connector-curvature="0"
   transform="matrix(1.35,0,0,1.35,-12.5,-10)" /><path
   style="fill:#ffcc66"
   d="m 22.565895,51.61669 c -0.507281,-0.355313 -0.52581,-1.058431 -0.04068,-1.543564 0.352968,-0.352968 0.609384,-0.365631 7.404022,-0.365631 6.794637,0 7.051053,0.01266 7.404022,0.365631 0.201097,0.201097 0.36563,0.530165 0.36563,0.731262 0,0.201096 -0.164533,0.530164 -0.36563,0.731261 -0.352895,0.352895 -0.609385,0.365631 -7.363345,0.365631 -6.037596,0 -7.053461,-0.03905 -7.404022,-0.28459 z"
   id="path3810"
   inkscape:connector-curvature="0"
   transform="matrix(1.35,0,0,1.35,-12.5,-10)" /><path
   style="fill:#ffcc66"
   d="m 44.74765,64.109231 c -0.376119,-0.536986 -0.358981,-0.799007 0.08104,-1.23903 0.336085,-0.336085 0.609385,-0.365631 3.382084,-0.365631 2.7727,0 3.046,0.02955 3.382084,0.365631 0.439174,0.439174 0.469614,0.966793 0.07835,1.358057 -0.239115,0.239115 -0.819748,0.287281 -3.463126,0.287281 -3.074584,0 -3.184918,-0.01296 -3.460433,-0.406308 z"
   id="path3812"
   inkscape:connector-curvature="0"
   transform="matrix(1.35,0,0,1.35,-12.5,-10)" /><path
   style="fill:#ffcc66"
   d="m 68.330831,52.226233 c -0.156524,-0.22347 -0.284589,-0.528524 -0.284589,-0.677899 0,-0.345107 9.807313,-10.190777 10.272162,-10.312338 0.543667,-0.142172 1.326015,0.630295 1.188266,1.173259 -0.0624,0.245961 -2.291857,2.615739 -5.017197,5.332975 -5.218151,5.202637 -5.507654,5.413419 -6.158642,4.484003 z"
   id="path3816"
   inkscape:connector-curvature="0"
   transform="matrix(1.35,0,0,1.35,-12.5,-10)" /></svg>